name 900006_30rea_lsw
datacolumns 54
datarows 4
range 0.8750000000000001 0.9020000000000001
cursor 1.0 1.0 0.0
keys m_key
wrap
enforce_loops no
enforce_constraints no
calc_derivatives 0.009000
event_color 1.000000 0.000000 1.000000
endheader

time	calcn_r_tx	calcn_r_ty	calcn_r_tz	calcn_r_r1	calcn_r_r2	calcn_r_r3	calcn_l_tx	calcn_l_ty	calcn_l_tz	calcn_l_r1	calcn_l_r2	calcn_l_r3	pelvis_tz	pelvis_tx	pelvis_ty	pelvis_tilt	pelvis_list	pelvis_rotation	hip_flexion_r	hip_adduction_r	hip_rotation_r	knee_angle_r	ankle_angle_r	subtalar_angle_r	mtp_angle_r	hip_flexion_l	hip_adduction_l	hip_rotation_l	knee_angle_l	ankle_angle_l	subtalar_angle_l	mtp_angle_l	lumbar_extension	lumbar_bending	lumbar_rotation	ground_force_px	ground_force_py	ground_force_pz	ground_force_vx	ground_force_vy	ground_force_vz	ground_force_px	ground_force_py	ground_force_pz	ground_force_vx	ground_force_vy	ground_force_vz	ground_torque_x	ground_torque_y	ground_torque_z	ground_torque_x	ground_torque_y	ground_torque_z	
      0.8750000000000001	      1.1356252025693998	      0.0381509121556420	     -0.1419842636677178	     -0.2416191255516373	     -0.5475763437675661	     17.4685606996282700	      0.6926685727394156	      0.0349479802942521	     -0.2451651532007766	     -3.0765287778326607	      4.9616991512266191	     -4.0360532385454189	     -0.2347558765484788	      1.0000096434135122	      0.8063194684685018	      1.3163370894689392	     -0.7769131957538409	      2.8112670231632411	     25.9265940281377110	     -0.2250743931015581	     -2.4341577651726594	    -15.1420475388936870	      5.5026732577609820	      0.0000000000000000	      0.0000000000000000	    -16.4443352081830060	      4.2023212826693879	     -3.5542836625154313	     -1.1328997719974470	     12.4313349075202120	      0.0000000000000000	      0.0000000000000000	     -7.0994920855341510	      0.1682971866037493	      2.4404449727091211	      1.1591430605945845	      0.0000000000000000	     -0.1562990216307715	     -0.0033106896544758	      0.0147614893006223	      0.0003547105568598	      0.8437542141055251	      0.0000000000000000	     -0.2529614609748395	     28.5337936615099860	    467.3359634454405400	      7.2740415121057191	      0.0000000000000000	     -0.0000836882786995	      0.0000000000000000	      0.0000000000000000	     -2.3133369539713855	      0.0000000000000000	
      0.8840000000000001	      1.1602528457917884	      0.0377174770112852	     -0.1425013496417275	     -0.1716107499067337	     -0.6173688170094300	     19.1818692334210500	      0.6918540580656863	      0.0369037291872207	     -0.2454403836972266	     -2.8922787525270932	      5.0747202163195704	     -4.7379005335260054	     -0.2348999454750432	      1.0123721394968683	      0.8040636228953979	      1.3950838040999578	     -0.7657912354490727	      2.8349238686009630	     26.0044411255282060	     -0.2382655138126142	     -2.5177091852415630	    -13.6146002819077410	      5.5329902500540982	      0.0000000000000000	      0.0000000000000000	    -17.6470756363995530	      4.1429883144277957	     -3.6955058431583807	     -1.0868015293277422	     12.8308257796579000	      0.0000000000000000	      0.0000000000000000	     -7.4320081610744841	      0.5295462582869259	      1.4328402766424062	      1.1823379993160739	      0.0000000000000000	     -0.1564118991092856	      0.0112395147762745	     -0.0107891412464071	      0.0020740995536542	      0.8466008959694729	      0.0000000000000000	     -0.2525287248398174	     33.4649520451771710	    485.7663751641825900	      7.1335118104107327	      0.0000000000000000	     -0.0000598104156254	      0.0000000000000000	      0.0000000000000000	     -2.2152631312657007	      0.0000000000000000	
      0.8930000000000001	      1.1827110331374606	      0.0373346571289021	     -0.1430576364632044	     -0.0798949438394143	     -0.7446679115632884	     20.5661302535136340	      0.6911567098352998	      0.0392228651495275	     -0.2459530119293390	     -2.7105645090248989	      5.1270389756918338	     -5.5489823741719562	     -0.2350382302211868	      1.0249266012575173	      0.8018943808903829	      1.4799503029991063	     -0.7941810775157530	      2.8545102398089597	     26.0746273842719100	     -0.2148289743682295	     -2.6779425954407179	    -12.4311635318366600	      5.5824554708335548	      0.0000000000000000	      0.0000000000000000	    -18.8097115886014980	      4.0240214511117784	     -3.7960777605104226	     -1.1423779040981989	     13.1765473236844600	      0.0000000000000000	      0.0000000000000000	     -7.7362780403787719	      0.9427978578243351	      0.5012288368219696	      1.2040374264050757	      0.0000000000000000	     -0.1565164671903810	      0.0152844471463688	     -0.0967512486902831	     -0.0040248780957524	      0.8494688364698977	      0.0000000000000000	     -0.2521847206759351	     38.7142849005953240	    500.8249388248343600	      7.8322266721759517	      0.0000000000000000	      0.0006409995040486	      0.0000000000000000	      0.0000000000000000	     -1.9770805927855946	      0.0000000000000000	
      0.9020000000000001	      1.2028738909953904	      0.0368581207573034	     -0.1436077743945486	      0.0254957609095820	     -0.9028225914151621	     21.5760972845564080	      0.6906410151604646	      0.0419333608360247	     -0.2466871213951848	     -2.5320669910982874	      5.1293518934965787	     -6.4686463364718128	     -0.2351702520128035	      1.0376780357355495	      0.7998474301553691	      1.5683095479811575	     -0.8628075476352224	      2.8717382319941711	     26.1342007014486380	     -0.1534522968909363	     -2.8944715168443822	    -11.6001597985576890	      5.6189799018607047	      0.0000000000000000	      0.0000000000000000	    -19.9183260137051970	      3.8450985814342600	     -3.8686265397114257	     -1.3125453329629981	     13.4708615938780860	      0.0000000000000000	      0.0000000000000000	     -8.0110302897727994	      1.4072158399723216	     -0.3458692381620553	      1.2241366948368730	      0.0000000000000000	     -0.1566121221071928	     -0.0946139589823270	      0.1524096390320845	     -0.0123441361886462	      0.8523239538580627	      0.0000000000000000	     -0.2518998580719934	     44.4750830846819840	    511.5728911625021200	      8.9431162449519128	      0.0000000000000000	     -0.0000062226143781	      0.0000000000000000	      0.0000000000000000	     -1.6301803158483754	      0.0000000000000000	
